<svg xmlns="http://www.w3.org/2000/svg" width="24" height="24" version="1.0" id="weather">
  <path fill="#010101" d="M16.956 13.99H7.158a.348.348 0 0 1-.157-.04c-1.699-.203-2.968-1.584-2.968-3.251a3.325 3.325 0 0 1 3.542-3.311c.062-2.463 2.074-4.447 4.54-4.447a4.57 4.57 0 0 1 4.569 4.563c0 .045-.003.09-.007.134.046-.002.091-.004.139-.004 1.769 0 3.154 1.396 3.154 3.178a3.181 3.181 0 0 1-3.014 3.178zm-9.688-.7h9.678a2.48 2.48 0 0 0 2.322-2.478c0-1.389-1.078-2.478-2.454-2.478-.158 0-.296.021-.45.043-.112.014-.255-.018-.333-.097-.078-.08-.146-.188-.128-.298l.034-.177c.022-.109.046-.221.046-.303a3.87 3.87 0 0 0-3.869-3.863c-2.118 0-3.841 1.733-3.841 3.863 0 .027.006.059.011.091.008.07.017.137.017.194a.35.35 0 0 1-.4.347 3.473 3.473 0 0 0-.545-.053A2.624 2.624 0 0 0 4.732 10.7c0 1.312 1.067 2.438 2.429 2.564a.35.35 0 0 1 .107.026zm8.753 6.044a2.221 2.221 0 0 1-2.12-1.611.35.35 0 0 1 .673-.193c.186.65.781 1.104 1.447 1.104.822 0 1.491-.667 1.491-1.488s-.668-1.488-1.491-1.488H7.186a.35.35 0 0 1 0-.7h8.835c1.208 0 2.191.981 2.191 2.188s-.983 2.188-2.191 2.188z"></path>
  <path fill="#010101" d="M11.037 21.059c-1.012 0-1.885-.667-2.123-1.622a.35.35 0 1 1 .678-.17c.161.643.755 1.092 1.444 1.092.822 0 1.491-.667 1.491-1.488s-.668-1.488-1.491-1.488H7.299a.35.35 0 0 1 0-.7h3.738c1.208 0 2.191.981 2.191 2.188s-.983 2.188-2.191 2.188z"></path>
</svg>
