<svg xmlns="http://www.w3.org/2000/svg" xml:space="preserve" width="24" height="24" version="1.0" id="weather">
  <path fill="#010101" d="M14.039 13.439a.35.35 0 0 1 0-.7h5.578a2.488 2.488 0 0 0 2.34-2.478 2.482 2.482 0 0 0-2.482-2.477c-.152 0-.329.026-.48.052a.351.351 0 0 1-.403-.403c.025-.152.052-.303.052-.479 0-2.13-1.723-3.864-3.84-3.864-.876 0-1.732.313-2.409.88a.35.35 0 0 1-.45-.536 4.46 4.46 0 0 1 2.859-1.044c2.503 0 4.541 2.047 4.541 4.564 0 .046-.001.091-.004.135.046-.002.092-.004.135-.004a3.183 3.183 0 0 1 3.182 3.177 3.194 3.194 0 0 1-3.021 3.178l-5.598-.001z"></path>
  <path fill="#010101" d="M10.414 21.611a.35.35 0 0 1-.343-.42l.708-3.482H9.281a.352.352 0 0 1-.338-.444l1.19-4.27a.35.35 0 0 1 .337-.256h3.087a.35.35 0 0 1 .289.548l-1.408 2.054h1.799a.35.35 0 0 1 .289.548l-3.823 5.57a.353.353 0 0 1-.289.152zm-.672-4.603h1.465a.35.35 0 0 1 .343.42l-.45 2.215 2.473-3.603h-1.799a.35.35 0 0 1-.289-.548l1.408-2.054h-2.157l-.994 3.57z"></path>
  <path fill="#010101" d="M14.237 13.439H4.439a.343.343 0 0 1-.153-.038 3.25 3.25 0 0 1-2.944-3.253 3.298 3.298 0 0 1 3.295-3.291c.075 0 .146 0 .217.002a4.571 4.571 0 0 1 4.568-4.47c2.504 0 4.542 2.047 4.542 4.564 0 .046-.001.091-.004.134.044-.002.089-.004.135-.004 1.739 0 3.154 1.425 3.154 3.177 0 1.715-1.287 3.081-2.992 3.178l-.02.001zm-9.688-.7h9.678c1.325-.08 2.322-1.144 2.322-2.478 0-1.366-1.101-2.477-2.454-2.477-.177 0-.329.026-.48.052a.351.351 0 0 1-.403-.403c.025-.152.052-.303.052-.479 0-2.13-1.723-3.864-3.841-3.864a3.87 3.87 0 0 0-3.869 3.864c0 .038.006.071.01.105.01.065.018.131.018.206a.35.35 0 0 1-.446.335c-.151-.043-.289-.043-.498-.043a2.595 2.595 0 0 0-2.595 2.59 2.557 2.557 0 0 0 2.395 2.564.342.342 0 0 1 .111.028z"></path>
</svg>
