<svg xmlns="http://www.w3.org/2000/svg" width="36" height="36" version="1.0" id="weather">
  <g fill="#010101">
    <path d="M26.115 17.092a.511.511 0 0 1-.376-.149c-.213-.218-.254-.522-.039-.737l.104-.104a4.707 4.707 0 0 0 1.503-3.309 4.636 4.636 0 0 0-1.259-3.35c-1.755-1.87-4.728-1.98-6.63-.239a.558.558 0 1 1-.755-.824c2.354-2.146 6.031-2.013 8.2.3a5.756 5.756 0 0 1 1.56 4.152 5.819 5.819 0 0 1-1.857 4.089.68.68 0 0 1-.45.17zM22.612 5.193a.56.56 0 0 1-.559-.559V2.558a.56.56 0 0 1 1.118 0v2.076c0 .31-.25.559-.559.559zm10.31 8.218h-2.08a.56.56 0 0 1 0-1.117h2.08a.56.56 0 0 1 0 1.117zm-3.029 7.269a.552.552 0 0 1-.394-.165l-1.447-1.445a.558.558 0 1 1 .79-.79l1.447 1.445a.558.558 0 0 1-.396.955zM16.78 7.63a.56.56 0 0 1-.4-.17l-1.447-1.489a.56.56 0 0 1 .801-.779l1.447 1.49a.56.56 0 0 1-.4.948zm11.668 0a.558.558 0 0 1-.401-.948l1.446-1.49a.557.557 0 0 1 .79-.011.558.558 0 0 1 .012.79l-1.447 1.49a.556.556 0 0 1-.4.17z"></path>
    <path d="M17.233 24.834a.56.56 0 0 1 0-1.117h5.922c2.057-.12 3.692-1.859 3.692-3.957a3.964 3.964 0 0 0-3.963-3.957c-.211 0-.422.034-.661.067-.173.03-.414-.025-.539-.153-.124-.128-.24-.299-.21-.474l.054-.283c.035-.174.073-.353.073-.484 0-3.4-2.772-6.168-6.177-6.168-3.382 0-6.133 2.767-6.133 6.168 0 .063.01.115.017.168.015.104.029.21.029.329a.56.56 0 0 1-.712.536 2.928 2.928 0 0 0-.797-.113 4.19 4.19 0 0 0-4.188 4.182c0 2.093 1.684 3.891 3.834 4.094.05.005.108.02.164.043h3.446a.56.56 0 0 1 0 1.118H7.51a.63.63 0 0 1-.258-.064c-2.69-.332-4.732-2.582-4.732-5.191 0-3.037 2.589-5.554 5.654-5.284.098-3.934 3.312-7.104 7.25-7.104 4.023 0 7.295 3.269 7.295 7.286 0 .07-.005.142-.011.214a5.084 5.084 0 0 1 5.256 5.07 5.08 5.08 0 0 1-4.777 5.073l-5.954.001zM6.878 29.755a.558.558 0 0 1-.396-.955l1.854-1.85a.558.558 0 1 1 .79.79l-1.854 1.851a.555.555 0 0 1-.394.164zm3.436 0a.558.558 0 0 1-.396-.955l1.856-1.85a.558.558 0 1 1 .79.79l-1.856 1.851a.552.552 0 0 1-.394.164zm6.872 0a.558.558 0 0 1-.396-.955l1.854-1.85a.558.558 0 1 1 .79.79l-1.853 1.851a.55.55 0 0 1-.395.164zm3.438 0a.558.558 0 0 1-.396-.955l1.854-1.85a.56.56 0 0 1 .79.79l-1.853 1.851a.552.552 0 0 1-.395.164zM3.261 34a.558.558 0 0 1-.396-.955l1.854-1.85a.56.56 0 0 1 .79.79l-1.853 1.85A.56.56 0 0 1 3.26 34zm3.435 0a.558.558 0 0 1-.396-.955l1.854-1.85a.558.558 0 1 1 .79.79l-1.854 1.85a.556.556 0 0 1-.394.165zm3.438 0a.558.558 0 0 1-.396-.955l1.853-1.85a.558.558 0 1 1 .79.79l-1.853 1.85a.562.562 0 0 1-.394.165zm3.436 0a.558.558 0 0 1-.396-.955l1.854-1.85a.558.558 0 1 1 .79.79l-1.854 1.85a.562.562 0 0 1-.394.165zm3.436 0a.558.558 0 0 1-.396-.955l1.854-1.85a.558.558 0 1 1 .79.79l-1.854 1.85a.56.56 0 0 1-.394.165z"></path>
    <path d="M12.845 31.018a.56.56 0 0 1-.546-.675l1.167-5.51h-2.384a.557.557 0 0 1-.538-.708l1.899-6.862a.559.559 0 0 1 .538-.41h4.929a.56.56 0 0 1 .461.874l-2.248 3.278h2.828a.56.56 0 0 1 .461.875l-6.104 8.894a.56.56 0 0 1-.463.244zm-1.028-7.301h2.339a.56.56 0 0 1 .546.675l-.728 3.435 3.913-5.702H15.06a.56.56 0 0 1-.462-.875l2.248-3.278h-3.439l-1.59 5.745z"></path>
  </g>
</svg>
