<svg xmlns="http://www.w3.org/2000/svg" width="24" height="24" version="1.0" id="weather">
  <path fill="#010101" d="M16.617 10.738a.35.35 0 0 1-.156-.663 2.91 2.91 0 0 0 1.034-.884 2.89 2.89 0 0 0 .524-2.187 2.876 2.876 0 0 0-1.18-1.901 2.963 2.963 0 0 0-4.131.656.35.35 0 1 1-.565-.413c1.192-1.63 3.483-1.994 5.105-.811a3.57 3.57 0 0 1 1.462 2.357 3.584 3.584 0 0 1-.651 2.712 3.608 3.608 0 0 1-1.286 1.096.33.33 0 0 1-.156.038zm-1.502-7.917a.35.35 0 0 1-.35-.35v-1.3a.35.35 0 0 1 .7 0v1.3a.35.35 0 0 1-.35.35zm6.456 5.146h-1.303a.35.35 0 0 1 0-.7h1.303a.35.35 0 0 1 0 .7zm-1.897 4.553a.346.346 0 0 1-.247-.103l-.935-.933a.35.35 0 1 1 .495-.495l.935.933a.35.35 0 0 1-.248.598zm-8.212-8.2a.35.35 0 0 1-.251-.106l-.906-.934a.35.35 0 0 1 .502-.488l.906.933a.35.35 0 0 1-.251.595zm7.277 0a.35.35 0 0 1-.248-.598l.935-.933a.35.35 0 1 1 .495.495l-.935.933a.344.344 0 0 1-.247.103z"></path>
  <path fill="#010101" d="M10.811 15.8a.35.35 0 0 1 0-.7h4.191c1.29-.05 2.311-1.138 2.311-2.478a2.483 2.483 0 0 0-2.481-2.478c-.133 0-.269.022-.442.071a.343.343 0 0 1-.326-.073.353.353 0 0 1-.117-.313c.032-.22.053-.357.053-.516 0-2.088-1.656-3.795-3.717-3.861a.31.31 0 0 1-.124.026 3.841 3.841 0 0 0-3.84 3.834c0 .039.006.072.011.106.009.065.018.13.018.205a.35.35 0 0 1-.4.348c-.182-.026-.364-.053-.546-.053-1.447 0-2.624 1.162-2.624 2.59 0 1.336 1.052 2.462 2.395 2.563a.347.347 0 0 1 .111.027h2.977a.35.35 0 0 1 0 .7H5.204a.426.426 0 0 1-.148-.035c-1.674-.16-2.977-1.578-2.977-3.256 0-1.886 1.642-3.426 3.541-3.282a4.542 4.542 0 0 1 4.407-4.446.316.316 0 0 1 .133-.03c2.504 0 4.542 2.047 4.542 4.563 0 .046-.001.092-.004.136a3.183 3.183 0 0 1 3.316 3.173c0 1.717-1.317 3.113-2.998 3.177l-4.205.002zm6.937 5.655a2.222 2.222 0 0 1-2.12-1.611.35.35 0 0 1 .673-.193c.186.65.781 1.104 1.447 1.104a1.49 1.49 0 0 0 1.491-1.488 1.49 1.49 0 0 0-1.491-1.488h-5.89a.35.35 0 0 1 0-.7h5.89c1.208 0 2.191.981 2.191 2.188s-.983 2.188-2.191 2.188z"></path>
  <path fill="#010101" d="M12.765 23.18c-1.011 0-1.885-.667-2.124-1.623a.35.35 0 1 1 .678-.17c.161.643.755 1.092 1.445 1.092.822 0 1.491-.667 1.491-1.488s-.668-1.488-1.491-1.488h-2.067a.35.35 0 0 1 0-.7h2.067c1.208 0 2.191.981 2.191 2.188s-.982 2.189-2.19 2.189zM4.1 18.938a.35.35 0 0 1-.251-.595l1.133-1.16a.35.35 0 1 1 .501.489l-1.133 1.16a.348.348 0 0 1-.25.106zm-.878 2.884a.35.35 0 0 1-.248-.598l1.161-1.159a.35.35 0 1 1 .495.495l-1.161 1.16a.35.35 0 0 1-.247.102zm2.152 0a.35.35 0 0 1-.248-.598l1.16-1.159a.35.35 0 0 1 .495.495l-1.16 1.159a.346.346 0 0 1-.247.103z"></path>
  <path fill="#010101" d="M8.602 22.444a.351.351 0 0 1-.343-.42l.708-3.482H7.469a.35.35 0 0 1-.336-.446l1.218-4.27a.35.35 0 0 1 .336-.254h3.059a.349.349 0 0 1 .288.549l-1.403 2.023h1.795a.35.35 0 0 1 .289.548l-3.823 5.599a.352.352 0 0 1-.29.153zm-.669-4.602h1.462a.35.35 0 0 1 .343.42l-.448 2.204 2.473-3.62H9.961a.349.349 0 0 1-.288-.549l1.403-2.023H8.951l-1.018 3.568z"></path>
</svg>
