<svg xmlns="http://www.w3.org/2000/svg" width="24" height="24" version="1.0" id="weather">
  <path fill="#010101" d="M16.956 14.415H7.157a.338.338 0 0 1-.154-.039c-1.674-.174-2.971-1.584-2.971-3.252 0-1.815 1.491-3.292 3.323-3.292.075 0 .146 0 .217.002a4.572 4.572 0 0 1 4.569-4.47c2.504 0 4.542 2.047 4.542 4.564 0 .046-.002.091-.006.134.044-.002.09-.004.138-.004 1.738 0 3.153 1.425 3.153 3.177 0 1.715-1.286 3.081-2.991 3.178l-.021.002zm-9.688-.701h9.678c1.324-.08 2.321-1.144 2.321-2.478 0-1.366-1.1-2.477-2.453-2.477-.177 0-.329.026-.48.052a.347.347 0 0 1-.284-.078.348.348 0 0 1-.124-.267c0-.1.015-.2.031-.304.012-.074.025-.151.025-.233 0-2.13-1.723-3.864-3.841-3.864a3.871 3.871 0 0 0-3.87 3.864c0 .038.006.071.01.105a1.2 1.2 0 0 1 .019.205.35.35 0 0 1-.446.337c-.151-.043-.289-.043-.499-.043-1.446 0-2.623 1.163-2.623 2.591 0 1.359 1.042 2.461 2.423 2.563.04.003.078.013.113.027zm.569 3.669a.35.35 0 0 1-.35-.35v-1.386a.35.35 0 0 1 .7 0v1.386a.35.35 0 0 1-.35.35z"></path>
  <path fill="#010101" d="M8.545 16.705H7.157a.35.35 0 0 1 0-.7h1.388a.35.35 0 0 1 0 .7zm3.398.678a.35.35 0 0 1-.35-.35v-1.386a.35.35 0 0 1 .7 0v1.386a.35.35 0 0 1-.35.35z"></path>
  <path fill="#010101" d="M12.651 16.705h-1.416a.35.35 0 0 1 0-.7h1.416a.35.35 0 0 1 0 .7zm3.597.962a.35.35 0 0 1-.35-.35v-1.386a.35.35 0 0 1 .7 0v1.386a.35.35 0 0 1-.35.35z"></path>
  <path fill="#010101" d="M16.956 16.988h-1.388a.35.35 0 0 1 0-.7h1.388a.35.35 0 0 1 0 .7zM9.819 20.38a.35.35 0 0 1-.35-.35v-1.386a.35.35 0 0 1 .7 0v1.386a.35.35 0 0 1-.35.35z"></path>
  <path fill="#010101" d="M10.527 19.702H9.14a.35.35 0 0 1 0-.7h1.388a.35.35 0 1 1-.001.7zm3.625.933a.35.35 0 0 1-.35-.35v-1.414a.35.35 0 0 1 .7 0v1.414a.35.35 0 0 1-.35.35z"></path>
  <path fill="#010101" d="M14.832 19.928h-1.388a.35.35 0 0 1 0-.7h1.388a.35.35 0 0 1 0 .7z"></path>
</svg>
